<?xml version="1.0" standalone="no"?>
<!DOCTYPE svg PUBLIC "-//W3C//DTD SVG 20010904//EN"
 "http://www.w3.org/TR/2001/REC-SVG-20010904/DTD/svg10.dtd">
<svg version="1.0" xmlns="http://www.w3.org/2000/svg"
 width="48.000000pt" height="48.000000pt" viewBox="0 0 48.000000 48.000000"
 preserveAspectRatio="xMidYMid meet">

<g transform="translate(0.000000,48.000000) scale(0.100000,-0.100000)"
fill="#000000" stroke="none">
<path d="M72 408 c-17 -17 -17 -319 0 -336 17 -17 319 -17 336 0 7 7 12 27 12
44 0 18 5 36 10 39 13 8 13 162 0 170 -6 3 -10 21 -10 39 0 17 -5 37 -12 44
-17 17 -319 17 -336 0z m308 -48 c0 -18 -7 -20 -68 -20 -40 0 -73 -5 -80 -12
-16 -16 -16 -160 0 -176 7 -7 40 -12 80 -12 61 0 68 -2 68 -20 0 -19 -7 -20
-140 -20 l-140 0 0 140 0 140 140 0 c133 0 140 -1 140 -20z m20 -120 l0 -60
-70 0 -70 0 0 60 0 60 70 0 70 0 0 -60z"/>
<path d="M294 256 c-10 -26 4 -48 28 -44 17 2 23 10 23 28 0 18 -6 26 -23 28
-13 2 -25 -3 -28 -12z"/>
</g>
</svg>
