<svg width="18" height="18" viewBox="0 0 18 18" fill="none" xmlns="http://www.w3.org/2000/svg">
<path d="M16 0H2C0.9 0 0 0.9 0 2V16C0 17.1 0.9 18 2 18H16C17.1 18 18 17.1 18 16V2C18 0.9 17.1 0 16 0ZM16 16H2V2H16V16Z" fill="#333333"/>
<path d="M8.25 4.71997H3.25V6.21997H8.25V4.71997Z" fill="#333333"/>
<path d="M15 12.75H10V14.25H15V12.75Z" fill="#333333"/>
<path d="M15 10.25H10V11.75H15V10.25Z" fill="#333333"/>
<path d="M5 15H6.5V13H8.5V11.5H6.5V9.5H5V11.5H3V13H5V15Z" fill="#333333"/>
<path d="M11.0903 7.95L12.5003 6.54L13.9103 7.95L14.9703 6.89L13.5603 5.47L14.9703 4.06L13.9103 3L12.5003 4.41L11.0903 3L10.0303 4.06L11.4403 5.47L10.0303 6.89L11.0903 7.95Z" fill="#333333"/>
</svg>
