<svg width="25" height="24" viewBox="0 0 25 24" fill="none" xmlns="http://www.w3.org/2000/svg">
<path d="M18.5 11C18.5 11.67 18.5 12.33 18.5 13C19.7 13 21.26 13 22.5 13C22.5 12.33 22.5 11.67 22.5 11C21.26 11 19.7 11 18.5 11Z" fill="#ED6700"/>
<path d="M16.5 17.61C17.46 18.32 18.71 19.26 19.7 20C20.1 19.47 20.5 18.93 20.9 18.4C19.91 17.66 18.66 16.72 17.7 16C17.3 16.54 16.9 17.08 16.5 17.61Z" fill="#ED6700"/>
<path d="M20.9 5.6C20.5 5.07 20.1 4.53 19.7 4C18.71 4.74 17.46 5.68 16.5 6.4C16.9 6.93 17.3 7.47 17.7 8C18.66 7.28 19.91 6.35 20.9 5.6Z" fill="#ED6700"/>
<path d="M4.5 9C3.4 9 2.5 9.9 2.5 11V13C2.5 14.1 3.4 15 4.5 15H5.5V19H7.5V15H8.5L13.5 18V6L8.5 9H4.5ZM9.53 10.71L11.5 9.53V14.47L9.53 13.29L9.05 13H8.5H4.5V11H8.5H9.05L9.53 10.71Z" fill="#ED6700"/>
<path d="M16 11.9999C16 10.6699 15.42 9.4699 14.5 8.6499V15.3399C15.42 14.5299 16 13.3299 16 11.9999Z" fill="#ED6700"/>
</svg>
