<svg width="25" height="24" viewBox="0 0 25 24" fill="none" xmlns="http://www.w3.org/2000/svg">
<g clip-path="url(#clip0_4459_13559)">
<path d="M18.4148 13.6968C21.0673 13.6968 23.2382 11.4891 23.2382 8.79838C23.2382 6.10769 21.0673 3.9 18.4148 3.9C15.7624 3.9 13.5914 6.10769 13.5914 8.79838C13.5914 11.4891 15.7624 13.6968 18.4148 13.6968ZM18.4148 4.96457C20.4858 4.96457 22.1872 6.69069 22.1872 8.79838C22.1872 10.9061 20.4858 12.6322 18.4148 12.6322C16.3439 12.6322 14.6425 10.9061 14.6425 8.79838C14.6425 6.69069 16.3439 4.96457 18.4148 4.96457Z" fill="#1976D2" stroke="#1976D2" stroke-width="0.2"/>
<path d="M18.4156 10.305H17.3943C17.255 10.305 17.1352 10.3524 17.0501 10.4388C16.9652 10.5252 16.9187 10.6465 16.9187 10.7873C16.9187 10.9281 16.9652 11.0495 17.0501 11.1358C17.1352 11.2222 17.255 11.2696 17.3943 11.2696H17.8975V11.479C17.8975 11.6198 17.9439 11.7411 18.0289 11.8274C18.1139 11.9139 18.2337 11.9612 18.373 11.9612C18.5123 11.9612 18.6321 11.9139 18.7171 11.8274C18.8021 11.7411 18.8485 11.6198 18.8485 11.479V11.1702C19.4462 10.9794 19.8698 10.4087 19.8698 9.79305C19.8698 8.98709 19.2089 8.3165 18.373 8.3165C18.1035 8.3165 17.8698 8.08026 17.8698 7.80453V7.67484C17.8698 7.39911 18.1035 7.16287 18.373 7.16287H19.3943C19.5335 7.16287 19.6534 7.11547 19.7384 7.02907C19.8234 6.94273 19.8698 6.8214 19.8698 6.68058C19.8698 6.53977 19.8234 6.41844 19.7384 6.3321C19.6534 6.24569 19.5335 6.1983 19.3943 6.1983H18.8485V5.98893C18.8485 5.84811 18.8021 5.72678 18.7171 5.64044C18.6321 5.55404 18.5123 5.50664 18.373 5.50664C18.2337 5.50664 18.1139 5.55404 18.0289 5.64044C17.9439 5.72678 17.8975 5.84811 17.8975 5.98893V6.29855C17.3408 6.49024 16.9187 7.06045 16.9187 7.67484V7.80453C16.9187 8.61049 17.5797 9.28107 18.4156 9.28107C18.6851 9.28107 18.9188 9.51731 18.9188 9.79305C18.9188 10.0688 18.6851 10.305 18.4156 10.305Z" fill="#1976D2" stroke="#1976D2" stroke-width="0.1"/>
<path d="M4.72766 18.5679V18.3174L11.1068 20.4351L11.1221 20.4402H11.1383H22.4574C23.6192 20.4402 24.6 19.4875 24.6 18.2653C24.6 17.043 23.6192 16.0903 22.4574 16.0903H16.8553C16.8506 15.4135 16.4938 14.7801 15.9111 14.4606L10.8486 11.4787L10.8481 11.4783C10.5374 11.298 10.2224 11.2055 9.90425 11.2055H4.72436C4.67242 10.4187 4.01287 9.77891 3.2234 9.77891H1.90426C1.08159 9.77891 0.4 10.4736 0.4 11.3055V18.5679C0.4 19.3997 1.08159 20.0944 1.90426 20.0944H3.2234C4.04607 20.0944 4.72766 19.3997 4.72766 18.5679ZM4.72766 17.1988V12.3133H9.90425C10.0593 12.3133 10.2088 12.3529 10.3163 12.4257L10.3162 12.4259L10.3213 12.4289L15.3425 15.4117L15.3434 15.4122C15.6097 15.5668 15.7617 15.836 15.7617 16.1471C15.7617 16.4551 15.6119 16.728 15.339 16.9277C15.0646 17.0853 14.7239 17.1177 14.4666 16.9692L13.5745 16.4082L13.5745 16.4082L13.5733 16.4075C13.3049 16.2439 12.9904 16.3593 12.8394 16.6149C12.68 16.8848 12.7911 17.2024 13.0437 17.3564L13.0437 17.3565L13.0473 17.3585L13.9834 17.8772L13.9834 17.8773L13.9866 17.8789C14.2531 18.0143 14.5664 18.1059 14.883 18.1059C15.2401 18.1059 15.6015 18.0151 15.9191 17.7852C16.166 17.6177 16.3793 17.4082 16.5181 17.1549H22.4149C22.9988 17.1549 23.5064 17.6297 23.5064 18.2653H23.5062L23.5066 18.2718C23.5452 18.8601 23.0404 19.3757 22.4574 19.3757H11.2821L4.72766 17.1988ZM3.6766 18.5679C3.6766 18.8167 3.46457 19.0298 3.2234 19.0298H1.90426C1.66309 19.0298 1.45106 18.8167 1.45106 18.5679V11.3055C1.45106 11.0566 1.66309 10.8435 1.90426 10.8435H3.2234C3.46457 10.8435 3.6766 11.0566 3.6766 11.3055V18.5679Z" fill="#1976D2" stroke="#1976D2" stroke-width="0.2"/>
</g>
<defs>
<clipPath id="clip0_4459_13559">
<rect width="24" height="24" fill="white" transform="translate(0.5)"/>
</clipPath>
</defs>
</svg>
