<svg width="24" height="24" viewBox="0 0 24 24" fill="none" xmlns="http://www.w3.org/2000/svg">
<g id="outline-receipt-24px">
<path id="Subtract" fill-rule="evenodd" clip-rule="evenodd" d="M17.6667 2H15.3333H13H10.6667H8.33333H8C6.89543 2 6 2.89543 6 4V5H7.55556V3.62543H18.4444V15.2921H18V17.2222L18.8333 16.3889L20 17.5556V4C20 2.89543 19.1046 2 18 2H17.6667Z" fill="#007FD8"/>
<path id="Shape" fill-rule="evenodd" clip-rule="evenodd" d="M14.6667 5.44434H12.3333H10H7.66667H5.33333H5C3.89543 5.44434 3 6.33977 3 7.44434V20.9999L4.16667 19.8332L5.33333 20.9999L6.5 19.8332L7.66667 20.9999L8.83333 19.8332L10 20.9999L11.1667 19.8332L12.3333 20.9999L13.5 19.8332L14.6667 20.9999L15.8333 19.8332L17 20.9999V7.44434C17 6.33977 16.1046 5.44434 15 5.44434H14.6667ZM4.55556 18.7364V7.06977H15.4444V18.7364H4.55556ZM14.6667 14.7777H5.33333V16.3332H14.6667V14.7777ZM5.33333 11.6666H14.6667V13.2221H5.33333V11.6666ZM9.22222 8.55545H5.33333V10.111H9.22222V8.55545Z" fill="#007FD8"/>
</g>
</svg>
