<svg width="22" height="18" viewBox="0 0 22 18" fill="none" xmlns="http://www.w3.org/2000/svg">
<path d="M8 12C5.33 12 0 13.34 0 16V18H16V16C16 13.34 10.67 12 8 12ZM2 16C2.22 15.28 5.31 14 8 14C10.7 14 13.8 15.29 14 16H2Z" fill="#333333"/>
<path d="M3.74 6H4C4 8.21 5.79 10 8 10C10.21 10 12 8.21 12 6H12.26C12.53 6 12.75 5.78 12.75 5.51V5.49C12.75 5.22 12.53 5 12.26 5H12C12 3.52 11.19 2.25 10 1.55V2.5C10 2.78 9.78 3 9.5 3C9.22 3 9 2.78 9 2.5V1.14C8.68 1.06 8.35 1 8 1C7.65 1 7.32 1.06 7 1.14V2.5C7 2.78 6.78 3 6.5 3C6.22 3 6 2.78 6 2.5V1.55C4.81 2.25 4 3.52 4 5H3.74C3.47 5 3.25 5.22 3.25 5.49V5.52C3.25 5.78 3.47 6 3.74 6ZM10 6C10 7.1 9.1 8 8 8C6.9 8 6 7.1 6 6H10Z" fill="#333333"/>
<path d="M20.9801 3.23L21.9101 2.4L21.1601 1.1L19.9701 1.49C19.8301 1.38 19.6701 1.29 19.5001 1.22L19.2501 0H17.7501L17.5001 1.22C17.3301 1.29 17.1701 1.38 17.0201 1.49L15.8401 1.1L15.0901 2.4L16.0201 3.23C16.0001 3.4 16.0001 3.58 16.0201 3.75L15.0901 4.6L15.8401 5.9L17.0401 5.52C17.1701 5.62 17.3201 5.7 17.4701 5.77L17.7501 7H19.2501L19.5201 5.78C19.6801 5.71 19.8201 5.63 19.9601 5.53L21.1501 5.91L21.9001 4.61L20.9701 3.76C21.0001 3.57 20.9901 3.4 20.9801 3.23ZM18.5001 4.75C17.8101 4.75 17.2501 4.19 17.2501 3.5C17.2501 2.81 17.8101 2.25 18.5001 2.25C19.1901 2.25 19.7501 2.81 19.7501 3.5C19.7501 4.19 19.1901 4.75 18.5001 4.75Z" fill="#333333"/>
<path d="M18.4001 7.79L17.5501 8.07C17.4501 7.99 17.3401 7.93 17.2201 7.88L17.0401 7H15.9701L15.7901 7.87C15.6701 7.92 15.5501 7.99 15.4501 8.06L14.6101 7.78L14.0701 8.71L14.7301 9.3C14.7201 9.43 14.7201 9.55 14.7301 9.67L14.0701 10.28L14.6101 11.21L15.4701 10.94C15.5701 11.01 15.6701 11.07 15.7801 11.12L15.9601 12H17.0301L17.2201 11.13C17.3301 11.08 17.4401 11.02 17.5401 10.95L18.3901 11.22L18.9301 10.29L18.2701 9.68C18.2801 9.55 18.2801 9.43 18.2701 9.31L18.9301 8.72L18.4001 7.79ZM16.5001 10.39C16.0101 10.39 15.6101 9.99 15.6101 9.5C15.6101 9.01 16.0101 8.61 16.5001 8.61C16.9901 8.61 17.3901 9.01 17.3901 9.5C17.3901 9.99 16.9901 10.39 16.5001 10.39Z" fill="#333333"/>
</svg>
