<svg width="22" height="36" viewBox="0 0 22 36" fill="none" xmlns="http://www.w3.org/2000/svg">
<path d="M10.3143 0.23488C9.98838 0.562038 9.95407 0.922752 9.98838 3.4813C10.0141 5.83013 10.0398 5.91402 10.6231 6.18246C10.8891 6.30829 10.9577 6.31667 11.2751 6.20762C11.4723 6.14051 11.7125 5.97274 11.8069 5.84691C11.9784 5.62041 11.987 5.4862 12.0127 3.49808C12.0471 0.922752 12.0127 0.562038 11.6868 0.23488C11.4809 0.0419402 11.3694 -3.33786e-06 11.0006 -3.33786e-06C10.6317 -3.33786e-06 10.5202 0.0419402 10.3143 0.23488Z" fill="url(#paint0_linear_2148_88022)"/>
<path d="M1.21318 0.645935C0.767128 0.914373 0.586994 1.46803 0.810018 1.87068C0.912952 2.07201 3.73506 5.40232 4.20684 5.88886C4.58426 6.27474 4.94453 6.35863 5.37342 6.16569C5.93956 5.90564 6.11112 5.20938 5.75085 4.73122C5.03889 3.80847 2.29398 0.67949 2.11385 0.595603C1.81362 0.469773 1.47909 0.48655 1.21318 0.645935Z" fill="url(#paint1_linear_2148_88022)"/>
<path d="M19.7669 0.687878C19.621 0.796931 18.9091 1.57708 18.18 2.43272C15.9755 5.03322 16.0612 4.92416 16.0612 5.25132C16.0612 5.67076 16.2585 5.99791 16.6274 6.16569C17.0563 6.35863 17.4165 6.27474 17.794 5.88886C18.2657 5.40232 21.0878 2.07201 21.1908 1.87068C21.5082 1.29186 20.9849 0.503327 20.2815 0.503327C20.1443 0.503327 19.9127 0.587214 19.7669 0.687878Z" fill="url(#paint2_linear_2148_88022)"/>
<path d="M4.1641 8.05324C4.01827 8.13713 3.84672 8.28813 3.80383 8.3804C3.75236 8.47268 3.70947 9.0515 3.70947 9.72259V10.9054H11.0006H18.2918V9.70581C18.2918 8.39718 18.2489 8.24618 17.7771 8.0113C17.5627 7.90225 16.6191 7.88547 10.9835 7.88547C4.65303 7.88547 4.43001 7.89386 4.1641 8.05324Z" fill="url(#paint3_linear_2148_88022)"/>
<path d="M3.70916 14.8815C3.70916 17.2974 3.51187 16.8528 5.37326 18.539L6.62562 19.6714V27.5148C6.62562 36.1384 6.59131 35.5848 7.14029 35.8616C7.50914 36.0461 14.4915 36.0461 14.8603 35.8616C15.4093 35.5848 15.375 36.1384 15.375 27.5148V19.6714L16.5416 18.6228C17.1849 18.044 17.8368 17.4317 17.9998 17.2555L18.2915 16.9451V14.8899V12.8347H11.0003H3.70916V14.8815ZM11.5493 22.23C12.0211 22.4565 12.2269 22.7585 12.2698 23.287C12.3127 23.8406 12.0811 24.2516 11.5922 24.4949C11.1633 24.713 10.7773 24.7046 10.3656 24.4698C9.48204 23.9748 9.49919 22.7165 10.3999 22.2551C10.8545 22.0203 11.1032 22.0119 11.5493 22.23Z" fill="url(#paint4_linear_2148_88022)"/>
<defs>
<linearGradient id="paint0_linear_2148_88022" x1="11.0006" y1="6.28357" x2="11.0006" y2="-3.33786e-06" gradientUnits="userSpaceOnUse">
<stop stop-color="#ED6700"/>
<stop offset="0.984375" stop-color="#FF913D"/>
</linearGradient>
<linearGradient id="paint1_linear_2148_88022" x1="3.32698" y1="6.2655" x2="3.32698" y2="0.512333" gradientUnits="userSpaceOnUse">
<stop stop-color="#ED6700"/>
<stop offset="0.984375" stop-color="#FF913D"/>
</linearGradient>
<linearGradient id="paint2_linear_2148_88022" x1="18.6732" y1="6.2655" x2="18.6732" y2="0.503327" gradientUnits="userSpaceOnUse">
<stop stop-color="#ED6700"/>
<stop offset="0.984375" stop-color="#FF913D"/>
</linearGradient>
<linearGradient id="paint3_linear_2148_88022" x1="11.0006" y1="10.9054" x2="11.0006" y2="7.88547" gradientUnits="userSpaceOnUse">
<stop stop-color="#ED6700"/>
<stop offset="0.984375" stop-color="#FF913D"/>
</linearGradient>
<linearGradient id="paint4_linear_2148_88022" x1="10.9973" y1="36" x2="10.9973" y2="12.8347" gradientUnits="userSpaceOnUse">
<stop stop-color="#ED6700"/>
<stop offset="0.984375" stop-color="#FF913D"/>
</linearGradient>
</defs>
</svg>
