<svg xmlns="http://www.w3.org/2000/svg" viewBox="0 0 59.04 51.574">
  <g id="boxes" transform="translate(0 -32.371)">
    <g id="Agrupar_1792" data-name="Agrupar 1792" transform="translate(26.967 74.142)">
      <g id="Agrupar_1791" data-name="Agrupar 1791">
        <path id="Caminho_1500" data-name="Caminho 1500" d="M238.892,396.323a2.6,2.6,0,1,0-1.551,3.325A2.6,2.6,0,0,0,238.892,396.323Zm-2.142,1.7a.865.865,0,1,1,.517-1.108A.861.861,0,0,1,236.75,398.023Z" transform="translate(-233.86 -394.615)" fill="#f28c29"/>
      </g>
    </g>
    <g id="Agrupar_1794" data-name="Agrupar 1794" transform="translate(0 32.371)">
      <g id="Agrupar_1793" data-name="Agrupar 1793">
        <path id="Caminho_1501" data-name="Caminho 1501" d="M58.987,67.875,57.8,64.624a.862.862,0,0,0-.442-.485l-.005,0-.04-.016L57.28,64.1l-.009,0a.859.859,0,0,0-.575.005l-2.828,1.028-6.016-16.53h0l-2.365-6.5a.865.865,0,0,0-1.626.591l2.071,5.689L34.825,52.427h0l-6.771,2.464-4.536-12.46,5.96-2.169,1.282,3.521a.867.867,0,0,0,.812.57.839.839,0,0,0,.3-.053L36.2,42.723a.863.863,0,0,0,.56-.936v0c0-.022-.008-.045-.013-.067,0-.006,0-.012,0-.019a.86.86,0,0,0-.026-.083l-1.281-3.521L41.4,35.925l1.282,3.521a.869.869,0,0,0,.813.57.846.846,0,0,0,.3-.053.866.866,0,0,0,.517-1.108L42.725,34.52a.869.869,0,0,0-.679-.558.863.863,0,0,0-.429.041l-7.581,2.76h0l-.007,0-4.32,1.573-.008,0-.013.005L22.113,41.1a.864.864,0,0,0-.517,1.108L26.723,56.3l4.93,13.546a7.156,7.156,0,0,0-1.953-.311L17.21,35.216a4.329,4.329,0,0,0-5.542-2.584h0l-11.1,4h0c-.02.007-.039.016-.058.024l-.022.009c-.019.009-.036.019-.054.029l-.022.012c-.017.01-.033.022-.049.033l-.022.015c-.015.011-.029.024-.043.036l-.022.018c-.013.012-.026.026-.038.039l-.021.021c-.012.013-.022.027-.033.041l-.019.024c-.01.014-.019.028-.028.042l-.018.027c-.008.014-.015.029-.023.043s-.011.02-.016.03-.012.029-.018.044-.01.022-.013.033-.009.029-.013.044-.008.024-.011.036-.006.029-.009.044-.006.025-.008.038,0,.03,0,.045,0,.026,0,.039,0,.03,0,.046,0,.026,0,.039,0,.031,0,.046,0,.026,0,.039.006.031.009.046,0,.026.008.039.009.03.014.046.007.025.012.038h0v0l1.183,3.251c.009.024.021.047.032.07s.015.037.025.054.03.046.045.069.018.03.029.043a.831.831,0,0,0,.061.067c.01.01.018.021.028.031a.867.867,0,0,0,.075.06c.009.007.018.015.027.022a.844.844,0,0,0,.087.051l.026.015a.85.85,0,0,0,.094.037l.027.011a.879.879,0,0,0,.1.023l.028.006a.843.843,0,0,0,.131.01c.024,0,.049,0,.074,0l.015,0,.059-.008.027-.006.047-.01.049-.015.023-.007h0L12.629,37.8l12.2,33.506a7.205,7.205,0,1,0,11.944,5.567l21.7-7.892h0l.017-.007c.022-.009.044-.017.065-.027l.026-.014c.017-.009.034-.018.05-.027l.027-.018.044-.03.013-.011c.018-.014.035-.028.052-.044l.008-.009c.017-.017.034-.034.051-.052l.009-.011c.015-.018.03-.035.043-.054l0-.006c.015-.021.029-.042.042-.063l.006-.012c.011-.02.022-.04.032-.061s.007-.017.01-.025.015-.034.021-.052.007-.025.011-.037.009-.028.013-.043.009-.043.013-.065c0-.006,0-.011,0-.017A.862.862,0,0,0,58.987,67.875ZM33.811,38.685l.985,2.709-2.709.986L31.1,39.671Zm5.127,14.086.986,2.708-2.71.986-.986-2.709ZM28.644,56.517,34.6,54.348l1.282,3.521a.862.862,0,0,0,1.108.516l4.334-1.577a.864.864,0,0,0,.517-1.108l-1.282-3.521,5.96-2.169,5.72,15.715L34.988,72a7.25,7.25,0,0,0-1.073-1ZM13.959,36.4c-.005-.014-.011-.027-.017-.04s-.011-.027-.017-.04-.012-.023-.018-.034-.015-.029-.023-.042l-.018-.027c-.01-.015-.019-.03-.03-.044l-.018-.021c-.012-.015-.024-.03-.037-.044l-.016-.016c-.014-.015-.028-.029-.044-.043l-.013-.011c-.017-.014-.034-.029-.052-.042l-.008-.005c-.02-.014-.041-.028-.062-.04l0,0a.868.868,0,0,0-.39-.116h0c-.027,0-.054,0-.081,0h-.015c-.023,0-.047,0-.07.007l-.033.007-.051.01c-.019,0-.039.011-.058.018l-.026.008h0L2.565,39.592l-.592-1.625,10.283-3.709h0a2.6,2.6,0,0,1,3.325,1.551l12.342,33.91a7.052,7.052,0,0,0-1.625.593ZM34.525,79.051a5.479,5.479,0,1,1,.183-4.188A5.441,5.441,0,0,1,34.525,79.051ZM36.579,75.1a7.328,7.328,0,0,0-.246-.831,7.172,7.172,0,0,0-.345-.795l20.486-7.45.592,1.625Z" transform="translate(0 -32.371)" fill="#f28c29"/>
      </g>
    </g>
  </g>
</svg>
