<svg width="24" height="12" viewBox="0 0 24 12" fill="none" xmlns="http://www.w3.org/2000/svg">
<path d="M4 7C5.1 7 6 6.1 6 5C6 3.9 5.1 3 4 3C2.9 3 2 3.9 2 5C2 6.1 2.9 7 4 7ZM5.13 8.1C4.76 8.04 4.39 8 4 8C3.01 8 2.07 8.21 1.22 8.58C0.48 8.9 0 9.62 0 10.43V12H4.5V10.39C4.5 9.56 4.73 8.78 5.13 8.1ZM20 7C21.1 7 22 6.1 22 5C22 3.9 21.1 3 20 3C18.9 3 18 3.9 18 5C18 6.1 18.9 7 20 7ZM24 10.43C24 9.62 23.52 8.9 22.78 8.58C21.93 8.21 20.99 8 20 8C19.61 8 19.24 8.04 18.87 8.1C19.27 8.78 19.5 9.56 19.5 10.39V12H24V10.43ZM16.24 7.65C15.07 7.13 13.63 6.75 12 6.75C10.37 6.75 8.93 7.14 7.76 7.65C6.68 8.13 6 9.21 6 10.39V12H18V10.39C18 9.21 17.32 8.13 16.24 7.65ZM8.07 10C8.16 9.77 8.2 9.61 8.98 9.31C9.95 8.93 10.97 8.75 12 8.75C13.03 8.75 14.05 8.93 15.02 9.31C15.79 9.61 15.83 9.77 15.93 10H8.07ZM12 2C12.55 2 13 2.45 13 3C13 3.55 12.55 4 12 4C11.45 4 11 3.55 11 3C11 2.45 11.45 2 12 2ZM12 0C10.34 0 9 1.34 9 3C9 4.66 10.34 6 12 6C13.66 6 15 4.66 15 3C15 1.34 13.66 0 12 0Z" fill="#333333"/>
</svg>
