<svg width="24" height="24" viewBox="0 0 24 24" fill="none" xmlns="http://www.w3.org/2000/svg">
<path d="M12.22 19.85C12.04 20.03 11.72 20.06 11.51 19.85C11.33 19.67 11.3 19.35 11.51 19.14L14.9 15.75L13.49 14.34L10.1 17.73C9.90997 17.93 9.58997 17.92 9.38997 17.73C9.17997 17.52 9.20997 17.2 9.38997 17.02L12.78 13.63L11.37 12.22L7.97997 15.61C7.79997 15.79 7.47997 15.82 7.26997 15.61C7.07997 15.42 7.07997 15.1 7.26997 14.9L10.66 11.51L9.23997 10.1L5.84997 13.49C5.66997 13.67 5.34997 13.7 5.13997 13.49C4.94997 13.29 4.94997 12.98 5.13997 12.78L9.51997 8.4L11.39 10.26C12.34 11.21 13.98 11.2 14.93 10.26C15.91 9.28 15.91 7.7 14.93 6.72L13.07 4.86L13.35 4.58C14.13 3.8 15.4 3.8 16.18 4.58L20.42 8.82C21.2 9.6 21.2 10.87 20.42 11.65L12.22 19.85ZM21.83 13.07C23.39 11.51 23.39 8.98 21.83 7.41L17.59 3.17C16.03 1.61 13.5 1.61 11.93 3.17L11.65 3.45L11.37 3.17C9.80997 1.61 7.27997 1.61 5.70997 3.17L2.16997 6.71C0.74997 8.13 0.61997 10.34 1.76997 11.9L3.21997 10.45C2.82997 9.7 2.95997 8.75 3.58997 8.12L7.12997 4.58C7.90997 3.8 9.17997 3.8 9.95997 4.58L13.52 8.14C13.7 8.32 13.73 8.64 13.52 8.85C13.31 9.06 12.99 9.03 12.81 8.85L9.51997 5.57L3.71997 11.36C2.73997 12.33 2.73997 13.92 3.71997 14.9C4.10997 15.29 4.60997 15.53 5.13997 15.6C5.20997 16.12 5.43997 16.62 5.83997 17.02C6.23997 17.42 6.73997 17.65 7.25997 17.72C7.32997 18.24 7.55997 18.74 7.95997 19.14C8.35997 19.54 8.85997 19.77 9.37997 19.84C9.44997 20.38 9.68997 20.87 10.08 21.26C10.55 21.73 11.18 21.99 11.85 21.99C12.52 21.99 13.15 21.73 13.62 21.26L21.83 13.07Z" fill="#8B8B8B"/>
</svg>
