<svg id="invoice" xmlns="http://www.w3.org/2000/svg" viewBox="0 0 100.801 118.333">
  <g id="Agrupar_1746" data-name="Agrupar 1746" transform="translate(61.358 78.889)">
    <g id="Agrupar_1745" data-name="Agrupar 1745" transform="translate(0)">
      <path id="Caminho_1473" data-name="Caminho 1473" d="M323.13,341.333a19.722,19.722,0,1,0,19.722,19.722A19.744,19.744,0,0,0,323.13,341.333Zm0,35.062a15.339,15.339,0,1,1,15.339-15.339A15.357,15.357,0,0,1,323.13,376.395Z" transform="translate(-303.408 -341.333)" fill="#e6e6e6"/>
    </g>
  </g>
  <g id="Agrupar_1748" data-name="Agrupar 1748" transform="translate(70.124 89.846)">
    <g id="Agrupar_1747" data-name="Agrupar 1747">
      <path id="Caminho_1474" data-name="Caminho 1474" d="M362.459,389.249a2.192,2.192,0,0,0-3.086.281l-9.42,11.3-4.878-4.877a2.191,2.191,0,0,0-3.1,3.1l6.574,6.574a2.191,2.191,0,0,0,1.549.642l.1,0a2.192,2.192,0,0,0,1.584-.787l10.957-13.148A2.191,2.191,0,0,0,362.459,389.249Z" transform="translate(-341.334 -388.741)" fill="#e6e6e6"/>
    </g>
  </g>
  <g id="Agrupar_1750" data-name="Agrupar 1750" transform="translate(0)">
    <g id="Agrupar_1749" data-name="Agrupar 1749">
      <path id="Caminho_1475" data-name="Caminho 1475" d="M119.005,0H40.116a2.192,2.192,0,0,0-2.191,2.191V111.759a2.191,2.191,0,0,0,3.319,1.879l9.694-5.816,7.586,5.69a2.19,2.19,0,0,0,2.442.126l9.694-5.816,7.586,5.69a2.191,2.191,0,0,0,2.442.126l10.957-6.574a2.191,2.191,0,0,0-2.255-3.758L79.7,109.122l-7.586-5.69a2.19,2.19,0,0,0-2.442-.126l-9.694,5.816-7.586-5.69a2.19,2.19,0,0,0-2.442-.126l-7.638,4.582V4.383h74.506V72.315a2.191,2.191,0,0,0,4.383,0V2.191A2.191,2.191,0,0,0,119.005,0Z" transform="translate(-37.925)" fill="#e6e6e6"/>
    </g>
  </g>
  <g id="Agrupar_1752" data-name="Agrupar 1752" transform="translate(10.957 19.722)">
    <g id="Agrupar_1751" data-name="Agrupar 1751" transform="translate(0)">
      <path id="Caminho_1476" data-name="Caminho 1476" d="M98.481,85.333H87.524a2.191,2.191,0,0,0,0,4.383H98.481a2.191,2.191,0,0,0,0-4.383Z" transform="translate(-85.333 -85.333)" fill="#e6e6e6"/>
    </g>
  </g>
  <g id="Agrupar_1754" data-name="Agrupar 1754" transform="translate(52.593 30.679)">
    <g id="Agrupar_1753" data-name="Agrupar 1753" transform="translate(0)">
      <path id="Caminho_1477" data-name="Caminho 1477" d="M278.63,132.741H267.673a2.191,2.191,0,0,0,0,4.383H278.63a2.191,2.191,0,1,0,0-4.383Z" transform="translate(-265.482 -132.741)" fill="#e6e6e6"/>
    </g>
  </g>
  <g id="Agrupar_1756" data-name="Agrupar 1756" transform="translate(52.593 41.636)">
    <g id="Agrupar_1755" data-name="Agrupar 1755" transform="translate(0)">
      <path id="Caminho_1478" data-name="Caminho 1478" d="M278.63,180.148H267.673a2.191,2.191,0,0,0,0,4.383H278.63a2.191,2.191,0,1,0,0-4.383Z" transform="translate(-265.482 -180.148)" fill="#e6e6e6"/>
    </g>
  </g>
  <g id="Agrupar_1758" data-name="Agrupar 1758" transform="translate(52.593 52.593)">
    <g id="Agrupar_1757" data-name="Agrupar 1757" transform="translate(0)">
      <path id="Caminho_1479" data-name="Caminho 1479" d="M278.63,227.556H267.673a2.191,2.191,0,0,0,0,4.383H278.63a2.191,2.191,0,1,0,0-4.383Z" transform="translate(-265.482 -227.556)" fill="#e6e6e6"/>
    </g>
  </g>
  <g id="Agrupar_1760" data-name="Agrupar 1760" transform="translate(52.593 63.549)">
    <g id="Agrupar_1759" data-name="Agrupar 1759" transform="translate(0)">
      <path id="Caminho_1480" data-name="Caminho 1480" d="M278.63,274.963H267.673a2.191,2.191,0,0,0,0,4.383H278.63a2.191,2.191,0,1,0,0-4.383Z" transform="translate(-265.482 -274.963)" fill="#e6e6e6"/>
    </g>
  </g>
  <g id="Agrupar_1762" data-name="Agrupar 1762" transform="translate(52.593 74.506)">
    <g id="Agrupar_1761" data-name="Agrupar 1761" transform="translate(0)">
      <path id="Caminho_1481" data-name="Caminho 1481" d="M278.63,322.37H267.673a2.191,2.191,0,0,0,0,4.383H278.63a2.191,2.191,0,1,0,0-4.383Z" transform="translate(-265.482 -322.37)" fill="#e6e6e6"/>
    </g>
  </g>
  <g id="Agrupar_1764" data-name="Agrupar 1764" transform="translate(10.957 30.679)">
    <g id="Agrupar_1763" data-name="Agrupar 1763" transform="translate(0)">
      <path id="Caminho_1482" data-name="Caminho 1482" d="M118.2,132.741H87.524a2.191,2.191,0,1,0,0,4.383H118.2a2.191,2.191,0,1,0,0-4.383Z" transform="translate(-85.333 -132.741)" fill="#e6e6e6"/>
    </g>
  </g>
  <g id="Agrupar_1766" data-name="Agrupar 1766" transform="translate(10.957 41.636)">
    <g id="Agrupar_1765" data-name="Agrupar 1765" transform="translate(0)">
      <path id="Caminho_1483" data-name="Caminho 1483" d="M118.2,180.148H87.524a2.191,2.191,0,1,0,0,4.383H118.2a2.191,2.191,0,1,0,0-4.383Z" transform="translate(-85.333 -180.148)" fill="#e6e6e6"/>
    </g>
  </g>
  <g id="Agrupar_1768" data-name="Agrupar 1768" transform="translate(10.957 52.593)">
    <g id="Agrupar_1767" data-name="Agrupar 1767" transform="translate(0)">
      <path id="Caminho_1484" data-name="Caminho 1484" d="M118.2,227.556H87.524a2.191,2.191,0,1,0,0,4.383H118.2a2.191,2.191,0,1,0,0-4.383Z" transform="translate(-85.333 -227.556)" fill="#e6e6e6"/>
    </g>
  </g>
  <g id="Agrupar_1770" data-name="Agrupar 1770" transform="translate(10.957 63.549)">
    <g id="Agrupar_1769" data-name="Agrupar 1769" transform="translate(0)">
      <path id="Caminho_1485" data-name="Caminho 1485" d="M118.2,274.963H87.524a2.191,2.191,0,1,0,0,4.383H118.2a2.191,2.191,0,1,0,0-4.383Z" transform="translate(-85.333 -274.963)" fill="#e6e6e6"/>
    </g>
  </g>
  <g id="Agrupar_1772" data-name="Agrupar 1772" transform="translate(10.957 74.506)">
    <g id="Agrupar_1771" data-name="Agrupar 1771" transform="translate(0)">
      <path id="Caminho_1486" data-name="Caminho 1486" d="M118.2,322.37H87.524a2.191,2.191,0,1,0,0,4.383H118.2a2.191,2.191,0,1,0,0-4.383Z" transform="translate(-85.333 -322.37)" fill="#e6e6e6"/>
    </g>
  </g>
</svg>
