<svg xmlns="http://www.w3.org/2000/svg" viewBox="0 0 69.999 78.937">
  <g id="invoice_2_" data-name="invoice (2)" transform="translate(-28.981)">
    <g id="Agrupar_1708" data-name="Agrupar 1708" transform="translate(66.005 51.956)">
      <g id="Agrupar_1707" data-name="Agrupar 1707" transform="translate(0)">
        <path id="Caminho_1457" data-name="Caminho 1457" d="M303.239,362.8,288.25,338.818a1.5,1.5,0,0,0-2.542,0L270.719,362.8a1.5,1.5,0,0,0,1.271,2.293h29.978a1.5,1.5,0,0,0,1.271-2.293Zm-28.545-.7,12.285-19.656L299.264,362.1Z" transform="translate(-270.491 -338.113)" fill="#0AB543"/>
      </g>
    </g>
    <g id="Agrupar_1710" data-name="Agrupar 1710" transform="translate(81.094 59.45)">
      <g id="Agrupar_1709" data-name="Agrupar 1709">
        <path id="Caminho_1458" data-name="Caminho 1458" d="M368.594,386.415a1.5,1.5,0,0,0-1.5,1.5v7.495a1.5,1.5,0,0,0,3,0v-7.495A1.5,1.5,0,0,0,368.594,386.415Z" transform="translate(-367.095 -386.415)" fill="#0AB543"/>
      </g>
    </g>
    <g id="Agrupar_1712" data-name="Agrupar 1712" transform="translate(81.094 71.443)">
      <g id="Agrupar_1711" data-name="Agrupar 1711" transform="translate(0)">
        <path id="Caminho_1459" data-name="Caminho 1459" d="M370.062,464.913a1.454,1.454,0,0,0-.086-.281,1.7,1.7,0,0,0-.135-.258,1.79,1.79,0,0,0-.187-.229,1.512,1.512,0,0,0-1.353-.408,1.442,1.442,0,0,0-.281.086,1.737,1.737,0,0,0-.259.135,1.852,1.852,0,0,0-.229.187,1.81,1.81,0,0,0-.187.229,1.664,1.664,0,0,0-.135.258,1.448,1.448,0,0,0-.086.281,1.554,1.554,0,0,0-.03.292,1.5,1.5,0,1,0,3,0A1.557,1.557,0,0,0,370.062,464.913Z" transform="translate(-367.094 -463.708)" fill="#0AB543"/>
      </g>
    </g>
    <g id="Agrupar_1714" data-name="Agrupar 1714" transform="translate(28.981)">
      <g id="Agrupar_1713" data-name="Agrupar 1713" transform="translate(0)">
        <path id="Caminho_1460" data-name="Caminho 1460" d="M84.441,0H30.48a1.494,1.494,0,0,0-1.5,1.489V75.948a1.488,1.488,0,0,0,.76,1.3,1.507,1.507,0,0,0,1.51-.019l6.63-3.952,5.19,3.867a1.506,1.506,0,0,0,1.671.085l6.63-3.952,5.19,3.867a1.507,1.507,0,0,0,1.67.086l7.495-4.468a1.484,1.484,0,0,0,.514-2.043,1.5,1.5,0,0,0-2.057-.511l-6.63,3.952-5.19-3.867a1.506,1.506,0,0,0-1.671-.085l-6.63,3.952-5.19-3.867A1.505,1.505,0,0,0,37.2,70.2l-5.224,3.114V2.978H82.942V49.143a1.5,1.5,0,0,0,3,0V1.489A1.494,1.494,0,0,0,84.441,0Z" transform="translate(-28.981 0)" fill="#0AB543"/>
      </g>
    </g>
    <g id="Agrupar_1716" data-name="Agrupar 1716" transform="translate(36.476 13.401)">
      <g id="Agrupar_1715" data-name="Agrupar 1715">
        <path id="Caminho_1461" data-name="Caminho 1461" d="M86.276,86.943H78.782a1.5,1.5,0,1,0,0,3h7.495a1.5,1.5,0,1,0,0-3Z" transform="translate(-77.283 -86.943)" fill="#0AB543"/>
      </g>
    </g>
    <g id="Agrupar_1718" data-name="Agrupar 1718" transform="translate(64.686 20.846)">
      <g id="Agrupar_1717" data-name="Agrupar 1717">
        <path id="Caminho_1462" data-name="Caminho 1462" d="M269.823,135.245h-7.495a1.5,1.5,0,0,0,0,3h7.495a1.5,1.5,0,1,0,0-3Z" transform="translate(-260.83 -135.245)" fill="#0AB543"/>
      </g>
    </g>
    <g id="Agrupar_1720" data-name="Agrupar 1720" transform="translate(64.686 28.291)">
      <g id="Agrupar_1719" data-name="Agrupar 1719">
        <path id="Caminho_1463" data-name="Caminho 1463" d="M269.823,183.547h-7.495a1.5,1.5,0,0,0,0,3h7.495a1.5,1.5,0,1,0,0-3Z" transform="translate(-260.83 -183.547)" fill="#0AB543"/>
      </g>
    </g>
    <g id="Agrupar_1722" data-name="Agrupar 1722" transform="translate(64.686 35.736)">
      <g id="Agrupar_1721" data-name="Agrupar 1721">
        <path id="Caminho_1464" data-name="Caminho 1464" d="M269.823,231.849h-7.495a1.5,1.5,0,0,0,0,3h7.495a1.5,1.5,0,1,0,0-3Z" transform="translate(-260.83 -231.849)" fill="#0AB543"/>
      </g>
    </g>
    <g id="Agrupar_1724" data-name="Agrupar 1724" transform="translate(64.686 43.181)">
      <g id="Agrupar_1723" data-name="Agrupar 1723">
        <path id="Caminho_1465" data-name="Caminho 1465" d="M269.823,280.151h-7.495a1.5,1.5,0,0,0,0,3h7.495a1.5,1.5,0,1,0,0-3Z" transform="translate(-260.83 -280.151)" fill="#0AB543"/>
      </g>
    </g>
    <g id="Agrupar_1726" data-name="Agrupar 1726" transform="translate(64.686 50.626)">
      <g id="Agrupar_1725" data-name="Agrupar 1725">
        <path id="Caminho_1466" data-name="Caminho 1466" d="M269.823,328.453h-7.495a1.5,1.5,0,0,0,0,3h7.495a1.5,1.5,0,1,0,0-3Z" transform="translate(-260.83 -328.453)" fill="#0AB543"/>
      </g>
    </g>
    <g id="Agrupar_1728" data-name="Agrupar 1728" transform="translate(36.476 20.846)">
      <g id="Agrupar_1727" data-name="Agrupar 1727">
        <path id="Caminho_1467" data-name="Caminho 1467" d="M99.767,135.245H78.782a1.5,1.5,0,1,0,0,3H99.767a1.5,1.5,0,0,0,0-3Z" transform="translate(-77.283 -135.245)" fill="#0AB543"/>
      </g>
    </g>
    <g id="Agrupar_1730" data-name="Agrupar 1730" transform="translate(36.476 28.291)">
      <g id="Agrupar_1729" data-name="Agrupar 1729">
        <path id="Caminho_1468" data-name="Caminho 1468" d="M99.767,183.547H78.782a1.5,1.5,0,1,0,0,3H99.767a1.5,1.5,0,0,0,0-3Z" transform="translate(-77.283 -183.547)" fill="#0AB543"/>
      </g>
    </g>
    <g id="Agrupar_1732" data-name="Agrupar 1732" transform="translate(36.476 35.736)">
      <g id="Agrupar_1731" data-name="Agrupar 1731">
        <path id="Caminho_1469" data-name="Caminho 1469" d="M99.767,231.849H78.782a1.5,1.5,0,1,0,0,3H99.767a1.5,1.5,0,0,0,0-3Z" transform="translate(-77.283 -231.849)" fill="#0AB543"/>
      </g>
    </g>
    <g id="Agrupar_1734" data-name="Agrupar 1734" transform="translate(36.476 43.181)">
      <g id="Agrupar_1733" data-name="Agrupar 1733">
        <path id="Caminho_1470" data-name="Caminho 1470" d="M99.767,280.151H78.782a1.5,1.5,0,1,0,0,3H99.767a1.5,1.5,0,0,0,0-3Z" transform="translate(-77.283 -280.151)" fill="#0AB543"/>
      </g>
    </g>
    <g id="Agrupar_1736" data-name="Agrupar 1736" transform="translate(36.476 50.626)">
      <g id="Agrupar_1735" data-name="Agrupar 1735">
        <path id="Caminho_1471" data-name="Caminho 1471" d="M99.767,328.453H78.782a1.5,1.5,0,1,0,0,3H99.767a1.5,1.5,0,0,0,0-3Z" transform="translate(-77.283 -328.453)" fill="#0AB543"/>
      </g>
    </g>
  </g>
</svg>
