<svg width="24" height="24" viewBox="0 0 24 24" fill="none" xmlns="http://www.w3.org/2000/svg">
<g clip-path="url(#clip0_5019_61210)">
<path fill-rule="evenodd" clip-rule="evenodd" d="M10.2903 11.306C12.5805 11.306 14.4354 9.44754 14.4354 7.153C14.4354 4.85847 12.5805 3 10.2903 3C8.00017 3 6.14525 4.85847 6.14525 7.153C6.14525 9.44754 8.00017 11.306 10.2903 11.306ZM10.2903 5.0765C11.4302 5.0765 12.3629 6.01092 12.3629 7.153C12.3629 8.29507 11.4302 9.2295 10.2903 9.2295C9.15042 9.2295 8.21777 8.29507 8.21777 7.153C8.21777 6.01092 9.15042 5.0765 10.2903 5.0765ZM9.21244 15.5213C6.73575 15.7913 4.27979 16.8814 4.07254 17.5355H9.25389L11.3264 19.612H2V17.5355C2 14.7738 7.52332 13.3825 10.2902 13.3825C10.6218 13.3825 10.9223 13.4033 11.3264 13.4448L9.21244 15.5213Z" fill="#1F2328"/>
<path d="M20.5 18.75H14.5V17.5H20.5V18.75ZM20.5 15.5H14.5V14.25H20.5V15.5ZM13 21L13.75 20.325L14.5 21L15.25 20.325L16 21L16.75 20.325L17.5 21L18.25 20.325L19 21L19.75 20.325L20.5 21L21.25 20.325L22 21V12L21.25 12.675L20.5 12L19.75 12.675L19 12L18.25 12.675L17.5 12L16.75 12.675L16 12L15.25 12.675L14.5 12L13.75 12.675L13 12V21Z" fill="#1F2328"/>
</g>
<defs>
<clipPath id="clip0_5019_61210">
<rect width="24" height="24" fill="white"/>
</clipPath>
</defs>
</svg>
