<svg width="24" height="24" viewBox="0 0 24 24" fill="none" xmlns="http://www.w3.org/2000/svg">
<g clip-path="url(#clip0_5019_61179)">
<path fill-rule="evenodd" clip-rule="evenodd" d="M10.2903 11.306C12.5805 11.306 14.4354 9.44754 14.4354 7.153C14.4354 4.85847 12.5805 3 10.2903 3C8.00017 3 6.14525 4.85847 6.14525 7.153C6.14525 9.44754 8.00017 11.306 10.2903 11.306ZM10.2903 5.0765C11.4302 5.0765 12.3629 6.01092 12.3629 7.153C12.3629 8.29507 11.4302 9.2295 10.2903 9.2295C9.15042 9.2295 8.21777 8.29507 8.21777 7.153C8.21777 6.01092 9.15042 5.0765 10.2903 5.0765ZM9.21244 15.5213C6.73575 15.7913 4.27979 16.8814 4.07254 17.5355H9.25389L11.3264 19.612H2V17.5355C2 14.7738 7.52332 13.3825 10.2902 13.3825C10.6218 13.3825 10.9223 13.4033 11.3264 13.4448L9.21244 15.5213Z" fill="#1F2328"/>
<path d="M12 17.6001H22V18.9001C22 19.4524 21.5523 19.9001 21 19.9001H13C12.4477 19.9001 12 19.4524 12 18.9001V17.6001Z" fill="#1F2328"/>
<path fill-rule="evenodd" clip-rule="evenodd" d="M18.891 13H17.8797C17.8605 12.7865 17.9134 12.5029 18.087 12.2132C18.2709 11.9062 18.5181 11.7129 18.7298 11.6255C18.9401 11.5387 19.0593 11.5712 19.1103 11.5986C19.1612 11.626 19.2518 11.7065 19.2808 11.9222C19.3101 12.1393 19.2616 12.4396 19.0777 12.7466C19.0206 12.842 18.9573 12.9264 18.891 13ZM16.2779 13C16.278 12.9969 16.278 12.9937 16.2781 12.9904C16.2817 12.7702 16.1977 12.4741 15.9766 12.1854C15.7555 11.8968 15.4845 11.7294 15.2624 11.6644C15.0415 11.5998 14.9304 11.6464 14.8884 11.6753C14.8464 11.7042 14.7654 11.7899 14.7618 12.0091C14.7582 12.2293 14.8422 12.5254 15.0633 12.8141C15.116 12.8829 15.1715 12.9448 15.2285 13H16.2779ZM13.9961 13C13.5732 12.1902 13.6709 11.3009 14.2803 10.8814C14.9875 10.3946 16.1157 10.7246 16.8003 11.6184C16.9013 11.7504 16.9871 11.8872 17.0576 12.0262C17.1003 11.9296 17.1498 11.8337 17.2065 11.7392C17.7818 10.7787 18.8643 10.3317 19.6242 10.7408C20.3265 11.1189 20.5075 12.0959 20.0766 13H21C21.5523 13 22 13.4478 22 14V16H12V14C12 13.4478 12.4477 13 13 13H13.9961Z" fill="#1F2328"/>
</g>
<defs>
<clipPath id="clip0_5019_61179">
<rect width="24" height="24" fill="white"/>
</clipPath>
</defs>
</svg>
