<svg width="24" height="24" viewBox="0 0 24 24" fill="none" xmlns="http://www.w3.org/2000/svg">
<g clip-path="url(#clip0_4403_91795)">
<path fill-rule="evenodd" clip-rule="evenodd" d="M12 4C7.58172 4 4 7.58172 4 12C4 16.4183 7.58172 20 12 20H12.5V22H12C6.47715 22 2 17.5228 2 12C2 6.47715 6.47715 2 12 2C17.5228 2 22 6.47715 22 12V13L20 12C20 7.58172 16.4183 4 12 4Z" fill="#7E8B97"/>
<path d="M10 16L16 11.5L10 7V16Z" fill="#7E8B97"/>
<g clip-path="url(#clip1_4403_91795)">
<path d="M21 16H20.5V15C20.5 13.62 19.38 12.5 18 12.5C16.62 12.5 15.5 13.62 15.5 15V16H15C14.45 16 14 16.45 14 17V22C14 22.55 14.45 23 15 23H21C21.55 23 22 22.55 22 22V17C22 16.45 21.55 16 21 16ZM18 20.5C17.45 20.5 17 20.05 17 19.5C17 18.95 17.45 18.5 18 18.5C18.55 18.5 19 18.95 19 19.5C19 20.05 18.55 20.5 18 20.5ZM19.55 16H16.45V15C16.45 14.145 17.145 13.45 18 13.45C18.855 13.45 19.55 14.145 19.55 15V16Z" fill="#7E8B97"/>
</g>
</g>
<defs>
<clipPath id="clip0_4403_91795">
<rect width="24" height="24" fill="white"/>
</clipPath>
<clipPath id="clip1_4403_91795">
<rect x="12" y="12" width="12" height="12" rx="6" fill="white"/>
</clipPath>
</defs>
</svg>
