<svg width="24" height="24" viewBox="0 0 24 24" fill="none" xmlns="http://www.w3.org/2000/svg">
<g id="indique">
<path id="Shape" fill-rule="evenodd" clip-rule="evenodd" d="M9.63636 11.6364C7.52682 11.6364 5.81818 9.92773 5.81818 7.81818C5.81818 5.70864 7.52682 4 9.63636 4C11.7459 4 13.4545 5.70864 13.4545 7.81818C13.4545 9.92773 11.7459 11.6364 9.63636 11.6364ZM9.63636 5.90909C8.58636 5.90909 7.72727 6.76818 7.72727 7.81818C7.72727 8.86818 8.58636 9.72727 9.63636 9.72727C10.6864 9.72727 11.5455 8.86818 11.5455 7.81818C11.5455 6.76818 10.6864 5.90909 9.63636 5.90909ZM17.2727 17.3636C17.2727 14.8245 12.185 13.5455 9.63636 13.5455C7.08773 13.5455 2 14.8245 2 17.3636V19.2727H17.2727V17.3636ZM15.3636 17.3636C15.1536 16.6764 12.2041 15.4545 9.63636 15.4545C7.05909 15.4545 4.1 16.6859 3.90909 17.3636H15.3636ZM18.2273 11.6364V14.5H20.1364V11.6364H23V9.72727H20.1364V6.86364H18.2273V9.72727H15.3636V11.6364H18.2273Z" fill="white"/>
</g>
</svg>
