<svg width="22" height="36" viewBox="0 0 22 36" fill="none" xmlns="http://www.w3.org/2000/svg">
<path d="M21.3071 34.3486V1.65208C21.3071 0.741428 20.5662 0 19.6562 0H2.60912C1.69789 0 0.957031 0.741428 0.957031 1.65208V34.3485C0.957031 35.2591 1.69846 36 2.60912 36H19.6562C20.5662 36 21.3071 35.2592 21.3071 34.3486ZM1.86288 34.3486V1.65208C1.86288 1.24121 2.19704 0.906422 2.60855 0.906422H19.6556C20.0665 0.906422 20.4 1.24121 20.4 1.65208V34.3485C20.4 34.7594 20.0659 35.0936 19.6556 35.0936H2.60912C2.19704 35.0936 1.86288 34.7594 1.86288 34.3486Z" fill="black"/>
<path d="M19.9488 30.4198V3.58354C19.9488 3.45848 19.8474 3.35693 19.7222 3.35693H2.54155C2.41649 3.35693 2.31494 3.45842 2.31494 3.58354V30.4198C2.31494 30.5449 2.41643 30.6464 2.54155 30.6464H19.7222C19.8473 30.6464 19.9488 30.5449 19.9488 30.4198ZM18.8913 30.1932H3.37245C3.03893 30.1932 2.76822 29.9225 2.76822 29.589V4.41438C2.76822 4.08086 3.03893 3.81014 3.37245 3.81014H18.8913C19.2249 3.81014 19.4956 4.08086 19.4956 4.41438V29.5889C19.4956 29.9225 19.2249 30.1932 18.8913 30.1932Z" fill="black"/>
</svg>
