<svg width="29" height="29" viewBox="0 0 29 29" fill="none" xmlns="http://www.w3.org/2000/svg">
<path d="M20.8422 29C19.9061 29 18.9779 28.8345 18.0703 28.5048C14.0717 27.0522 10.3602 24.6864 7.33684 21.6631C4.31349 18.6398 1.94771 14.9283 0.495221 10.9297C0.0284643 9.64471 -0.10928 8.31824 0.0859522 6.98701C0.268837 5.74007 0.751849 4.52954 1.48282 3.48626C2.21702 2.43839 3.19585 1.56684 4.31344 0.965853C5.50522 0.324991 6.80603 0 8.17985 0C8.60713 0 8.97641 0.298541 9.06595 0.716305L10.4884 7.35426C10.5528 7.65484 10.4604 7.96759 10.2431 8.18497L7.81255 10.6154C10.1054 15.174 13.8258 18.8945 18.3844 21.1873L20.8149 18.7568C21.0323 18.5395 21.3451 18.4472 21.6456 18.5115L28.2836 19.9339C28.7014 20.0235 28.9999 20.3927 28.9999 20.82C28.9999 22.1938 28.6749 23.4947 28.034 24.6865C27.433 25.8041 26.5614 26.7829 25.5135 27.5171C24.4703 28.2481 23.2598 28.7311 22.0128 28.914C21.622 28.9713 21.2314 28.9999 20.8422 29ZM7.45578 1.85207C5.64364 2.05212 4.03523 3.00194 2.96714 4.52636C1.76607 6.24052 1.48599 8.34888 2.19873 10.3109C4.99123 17.9982 11.0017 24.0088 18.689 26.8012C20.651 27.514 22.7594 27.234 24.4736 26.0328C25.998 24.9647 26.9479 23.3563 27.1479 21.5442L21.748 20.3871L19.2096 22.9254C18.9395 23.1955 18.5291 23.2672 18.1835 23.1048C12.7921 20.5719 8.42804 16.2078 5.89517 10.8164C5.73279 10.4708 5.80449 10.0604 6.0746 9.79033L8.6129 7.25203L7.45578 1.85207Z" fill="black"/>
</svg>
