<svg width="31" height="31" viewBox="0 0 31 31" fill="none" xmlns="http://www.w3.org/2000/svg">
<path d="M15.4394 28.2451C16.5429 28.2451 17.4375 27.3506 17.4375 26.2471C17.4375 25.1436 16.5429 24.249 15.4394 24.249C14.336 24.249 13.4414 25.1436 13.4414 26.2471C13.4414 27.3506 14.336 28.2451 15.4394 28.2451Z" fill="black"/>
<path d="M30.6749 9.37652C26.6952 5.10658 21.3061 2.75494 15.4998 2.75488C9.69394 2.75494 4.30486 5.10658 0.325057 9.37652C-0.13086 9.86574 -0.103916 10.632 0.385301 11.088C0.87458 11.5439 1.6408 11.517 2.09678 11.0277C5.61333 7.25472 10.3733 5.17681 15.5002 5.17675C20.6267 5.17681 25.3866 7.25472 28.9032 11.0277C29.1417 11.2836 29.4651 11.4131 29.7893 11.4131C30.0849 11.4131 30.3813 11.3054 30.6147 11.088C31.1039 10.632 31.1309 9.86574 30.6749 9.37652Z" fill="black"/>
<path d="M26.2284 14.3774C23.2866 11.4134 19.4764 9.78113 15.4997 9.78125C11.5221 9.78131 7.71191 11.4137 4.77103 14.3775C4.29998 14.8523 4.30295 15.619 4.77769 16.09C5.25244 16.5611 6.01914 16.5581 6.4902 16.0834C8.97292 13.5812 12.1726 12.2032 15.4997 12.2031C18.8261 12.203 22.0257 13.5811 24.5093 16.0835C24.7461 16.322 25.0574 16.4414 25.3689 16.4414C25.6772 16.4414 25.9857 16.3243 26.222 16.0899C26.6966 15.6188 26.6995 14.8521 26.2284 14.3774Z" fill="black"/>
<path d="M21.3822 19.3927C19.8068 17.8318 17.5486 16.8623 15.4887 16.8623C15.4884 16.8623 15.488 16.8623 15.4878 16.8623H15.4005C15.4001 16.8623 15.4 16.8623 15.3996 16.8623C13.3396 16.8623 11.0812 17.8319 9.50585 19.3927C9.0308 19.8634 9.02723 20.6301 9.49792 21.1052C9.73472 21.3442 10.0464 21.4639 10.3582 21.4639C10.6662 21.4639 10.9743 21.3471 11.2104 21.1132C12.3319 20.002 13.9761 19.2842 15.3997 19.2842C15.3999 19.2842 15.4001 19.2842 15.4003 19.2842H15.4879C15.4882 19.2842 15.4882 19.2842 15.4885 19.2842C16.9119 19.2842 18.5563 20.0021 19.6776 21.1132C20.1527 21.5838 20.9195 21.5804 21.3902 21.1052C21.8609 20.6301 21.8573 19.8634 21.3822 19.3927Z" fill="black"/>
</svg>
