<svg xmlns="http://www.w3.org/2000/svg" width="53.148" height="50.068" viewBox="0 0 53.148 50.068">
  <g id="transfer" transform="translate(0 -14.2)">
    <g id="Agrupar_1884" data-name="Agrupar 1884" transform="translate(0 14.2)">
      <path id="Caminho_1534" data-name="Caminho 1534" d="M41.848,14.2H11.311a5.544,5.544,0,0,0-5.541,5.541V45.02l-3.5-3.5A1.327,1.327,0,0,0,.39,43.393l5.78,5.78a1.335,1.335,0,0,0,1.887,0l5.78-5.78a1.327,1.327,0,1,0-1.876-1.876L8.448,45.03V19.741a2.883,2.883,0,0,1,2.885-2.885H41.859a2.883,2.883,0,0,1,2.885,2.885v3.687a1.334,1.334,0,1,0,2.668,0V19.741A5.6,5.6,0,0,0,41.848,14.2Z" transform="translate(0 -14.2)" fill="#e6e6e6"/>
      <path id="Caminho_1535" data-name="Caminho 1535" d="M92.454,150.424l-5.78,5.78a1.33,1.33,0,0,0,1.887,1.876l3.514-3.514v25.278a2.883,2.883,0,0,1-2.885,2.885H58.652a2.883,2.883,0,0,1-2.885-2.885v-3.687a1.334,1.334,0,1,0-2.668,0v3.687a5.544,5.544,0,0,0,5.541,5.541H89.168a5.544,5.544,0,0,0,5.541-5.541V154.567l3.514,3.514A1.327,1.327,0,0,0,100.1,156.2l-5.78-5.78A1.349,1.349,0,0,0,92.454,150.424Z" transform="translate(-47.342 -135.318)" fill="#e6e6e6"/>
      <path id="Caminho_1536" data-name="Caminho 1536" d="M194.816,136.7a1.333,1.333,0,0,0-1.334,1.334v2.039h-.174a4.854,4.854,0,0,0,0,9.695H196.3a2.205,2.205,0,0,1,0,4.381h-5.379a1.334,1.334,0,1,0,0,2.668h2.559v2.071a1.334,1.334,0,1,0,2.668,0v-2.082h.228a4.856,4.856,0,0,0-.065-9.695H193.32a2.205,2.205,0,0,1,0-4.381H198.6a1.334,1.334,0,0,0,0-2.668H196.15v-2.039A1.338,1.338,0,0,0,194.816,136.7Z" transform="translate(-168.237 -123.416)" fill="#e6e6e6"/>
    </g>
  </g>
</svg>
