<?xml version="1.0" encoding="utf-8"?>
<!-- Generator: Adobe Illustrator 21.1.0, SVG Export Plug-In . SVG Version: 6.00 Build 0)  -->
<svg version="1.1" id="delivery-truck" xmlns="http://www.w3.org/2000/svg" xmlns:xlink="http://www.w3.org/1999/xlink" x="0px"
	 y="0px" viewBox="0 0 94.5 45.4" style="enable-background:new 0 0 94.5 45.4;" xml:space="preserve">
<style type="text/css">
	.st0{fill:#E6E6E6;}
</style>
<g id="Grupo_1786" transform="translate(9.9)">
	<g id="Grupo_1785">
		<path id="Caminho_1497" class="st0" d="M84.2,22.8l-11-12.5c-0.4-0.4-0.9-0.6-1.4-0.6h-9.1V1.9c0-1-0.8-1.9-1.9-1.9H21.9
			c-1,0-1.9,0.8-1.9,1.9v2.5H1.9C0.8,4.4,0,5.3,0,6.3c0,1,0.8,1.9,1.9,1.9H20v24.4H9.1c-1,0-1.9,0.8-1.9,1.9c0,1,0.8,1.9,1.9,1.9H20
			v1.9c0,1,0.8,1.9,1.9,1.9h3.9c1,3.8,5,6,8.8,5c2.4-0.7,4.3-2.6,5-5h25.1c1,3.8,5,6,8.8,5c2.4-0.7,4.3-2.6,5-5h4.3
			c1,0,1.9-0.8,1.9-1.9V24C84.6,23.6,84.5,23.1,84.2,22.8z M32.7,41.6c-1.9,0-3.4-1.5-3.4-3.4c0-1.9,1.5-3.4,3.4-3.4
			c1.9,0,3.4,1.5,3.4,3.4l0,0C36,40.1,34.5,41.6,32.7,41.6z M39.6,36.4c-1-3.8-5-6-8.8-5c-2.4,0.7-4.3,2.6-5,5h-2.1V3.8h35.1v32.6
			L39.6,36.4z M71.6,41.6c-1.9,0-3.4-1.5-3.4-3.4c0-1.9,1.5-3.4,3.4-3.4c1.9,0,3.4,1.5,3.4,3.4c0,0,0,0,0,0
			C74.9,40.1,73.4,41.6,71.6,41.6L71.6,41.6z M80.9,36.4h-2.5c-1-3.8-5-6-8.8-5c-2.4,0.7-4.3,2.6-5,5h-2v-23h8.3l9.9,11.3L80.9,36.4
			L80.9,36.4z"/>
	</g>
</g>
<g id="Grupo_1788" transform="translate(9.9 32.601)">
	<g id="Grupo_1787">
		<path id="Caminho_1498" class="st0" d="M2.9,0h-1C0.8,0,0,0.8,0,1.9s0.8,1.9,1.9,1.9c0,0,0,0,0,0h1c1,0,1.9-0.8,1.9-1.9
			C4.8,0.8,3.9,0,2.9,0z"/>
	</g>
</g>
<g id="Grupo_1790" transform="translate(0 18.322)">
	<g id="Grupo_1789" transform="translate(0 0)">
		<path id="Caminho_1499" class="st0" d="M22.1,0H1.9C0.8,0,0,0.8,0,1.9c0,1,0.8,1.9,1.9,1.9h20.2c1,0,1.9-0.8,1.9-1.9
			C23.9,0.8,23.1,0,22.1,0z"/>
	</g>
</g>
</svg>
