<svg width="20" height="18" viewBox="0 0 20 18" fill="none" xmlns="http://www.w3.org/2000/svg">
<path d="M4 12C5.1 12 6 12.9 6 14C6 15.1 5.1 16 4 16C2.9 16 2 15.1 2 14C2 12.9 2.9 12 4 12ZM4 10C1.8 10 0 11.8 0 14C0 16.2 1.8 18 4 18C6.2 18 8 16.2 8 14C8 11.8 6.2 10 4 10ZM10 2C11.1 2 12 2.9 12 4C12 5.1 11.1 6 10 6C8.9 6 8 5.1 8 4C8 2.9 8.9 2 10 2ZM10 0C7.8 0 6 1.8 6 4C6 6.2 7.8 8 10 8C12.2 8 14 6.2 14 4C14 1.8 12.2 0 10 0ZM16 12C17.1 12 18 12.9 18 14C18 15.1 17.1 16 16 16C14.9 16 14 15.1 14 14C14 12.9 14.9 12 16 12ZM16 10C13.8 10 12 11.8 12 14C12 16.2 13.8 18 16 18C18.2 18 20 16.2 20 14C20 11.8 18.2 10 16 10Z" fill="#333333"/>
</svg>
